<?xml version="1.0" encoding="UTF-8" standalone="no"?>
<!-- Created with Inkscape (http://www.inkscape.org/) -->

<svg
   width="96mm"
   height="24.37776mm"
   viewBox="0 0 96 24.377759"
   version="1.1"
   id="svg1"
   inkscape:version="1.4 (e7c3feb100, 2024-10-09)"
   sodipodi:docname="continue.svg"
   xmlns:inkscape="http://www.inkscape.org/namespaces/inkscape"
   xmlns:sodipodi="http://sodipodi.sourceforge.net/DTD/sodipodi-0.dtd"
   xmlns="http://www.w3.org/2000/svg"
   xmlns:svg="http://www.w3.org/2000/svg">
  <sodipodi:namedview
     id="namedview1"
     pagecolor="#ffffff"
     bordercolor="#000000"
     borderopacity="0.25"
     inkscape:showpageshadow="2"
     inkscape:pageopacity="0.0"
     inkscape:pagecheckerboard="0"
     inkscape:deskcolor="#d1d1d1"
     inkscape:document-units="mm"
     inkscape:zoom="1.6976511"
     inkscape:cx="230.31823"
     inkscape:cy="101.61098"
     inkscape:window-width="1463"
     inkscape:window-height="886"
     inkscape:window-x="0"
     inkscape:window-y="0"
     inkscape:window-maximized="1"
     inkscape:current-layer="layer1" />
  <defs
     id="defs1">
    <rect
       x="128.76273"
       y="82.265076"
       width="1044.4088"
       height="336.21378"
       id="rect2" />
  </defs>
  <g
     inkscape:label="Layer 1"
     inkscape:groupmode="layer"
     id="layer1"
     transform="translate(-17.99186,-289.09025)">
    <rect
       style="fill:#4682b4;fill-opacity:1;stroke:#000000;stroke-width:1.5875;stroke-dasharray:none"
       id="rect1"
       width="94.412498"
       height="22.79026"
       x="18.78561"
       y="289.884"
       rx="3"
       ry="3" />
    <path
       d="m 27.350427,308.26636 q -1.843578,0 -2.912853,-0.99437 -1.069274,-0.99438 -1.069274,-2.73452 v -5.8597 q 0,-1.74015 1.069274,-2.73452 1.069275,-0.99437 2.912853,-0.99437 1.806706,0 2.875981,1.01213 1.069274,0.99437 1.069274,2.71676 h -1.659219 q 0,-1.10091 -0.608381,-1.68688 -0.589945,-0.60372 -1.677655,-0.60372 -1.087711,0 -1.714527,0.60372 -0.608381,0.58597 -0.608381,1.68688 v 5.8597 q 0,1.10091 0.608381,1.70463 0.626816,0.58597 1.714527,0.58597 1.08771,0 1.677655,-0.58597 0.608381,-0.60372 0.608381,-1.70463 h 1.659219 q 0,1.72239 -1.069274,2.73452 -1.069275,0.99437 -2.875981,0.99437 z m 10.913986,-0.0355 q -1.825142,0 -2.912853,-1.02988 -1.069275,-1.02988 -1.069275,-2.87658 v -2.23733 q 0,-1.86445 1.069275,-2.87658 1.069275,-1.02988 2.912853,-1.02988 1.843577,0 2.912852,1.02988 1.069274,1.01213 1.069274,2.87658 v 2.23733 q 0,1.8467 -1.08771,2.87658 -1.069275,1.02988 -2.894416,1.02988 z m 0,-1.42052 q 1.08771,0 1.696091,-0.58597 0.626816,-0.58597 0.626816,-1.7224 v -2.59247 q 0,-1.13643 -0.626816,-1.72239 -0.608381,-0.58597 -1.696091,-0.58597 -1.069276,0 -1.696092,0.58597 -0.626816,0.58596 -0.626816,1.72239 v 2.59247 q 0,1.13643 0.626816,1.7224 0.626816,0.58597 1.696092,0.58597 z m 7.22683,1.27847 v -9.76615 h 1.65922 v 1.86445 h 0.01844 q 0.12905,-0.97662 0.829609,-1.50932 0.700561,-0.5327 1.862014,-0.5327 1.530169,0 2.433522,0.90559 0.903353,0.90559 0.903353,2.46818 v 6.56995 h -1.65922 v -6.28585 q 0,-1.11867 -0.589945,-1.70464 -0.571508,-0.60372 -1.56704,-0.60372 -1.032403,0 -1.640784,0.62148 -0.589945,0.62149 -0.589945,1.75791 v 6.21482 z m 15.910081,0 q -1.253633,0 -2.009499,-0.69251 -0.755867,-0.71026 -0.755867,-1.8822 v -5.7354 h -2.912852 v -1.45604 h 2.912852 v -2.75228 h 1.659219 v 2.75228 h 4.14805 v 1.45604 h -4.14805 v 5.7354 q 0,0.49718 0.294973,0.81681 0.313408,0.30186 0.811174,0.30186 h 2.949724 v 1.45604 z m 6.083812,0 v -1.45604 h 3.594976 v -6.85407 h -3.22626 v -1.45604 h 4.885479 v 8.31011 h 3.410619 v 1.45604 z m 4.240228,-11.52406 q -0.608381,0 -0.95866,-0.30186 -0.35028,-0.30186 -0.35028,-0.81681 0,-0.53269 0.35028,-0.83456 0.350279,-0.31962 0.95866,-0.31962 0.608381,0 0.95866,0.31962 0.35028,0.30187 0.35028,0.83456 0,0.51495 -0.35028,0.81681 -0.350279,0.30186 -0.95866,0.30186 z m 6.950294,11.52406 v -9.76615 h 1.659219 v 1.86445 h 0.01844 q 0.12905,-0.97662 0.829609,-1.50932 0.700559,-0.5327 1.862016,-0.5327 1.530164,0 2.43352,0.90559 0.903355,0.90559 0.903355,2.46818 v 6.56995 H 84.72259 v -6.28585 q 0,-1.11867 -0.589943,-1.70464 -0.571505,-0.60372 -1.567039,-0.60372 -1.032402,0 -1.640782,0.62148 -0.589945,0.62149 -0.589945,1.75791 v 6.21482 z m 14.877678,0.17757 q -1.751398,0 -2.802237,-0.99437 -1.050839,-1.01213 -1.050839,-2.73452 v -6.21483 h 1.659219 v 6.21483 q 0,1.06539 0.589943,1.70463 0.58995,0.62148 1.603914,0.62148 1.032402,0 1.622352,-0.62148 0.60838,-0.63924 0.60838,-1.70463 v -6.21483 h 1.659219 v 6.21483 q 0,1.72239 -1.069277,2.73452 -1.069276,0.99437 -2.820674,0.99437 z m 11.079904,0 q -1.78827,0 -2.89442,-1.02989 -1.0877,-1.04764 -1.0877,-2.87657 v -2.30837 q 0,-1.82893 1.0877,-2.85881 1.10615,-1.04765 2.89442,-1.04765 1.19833,0 2.08325,0.46168 0.90334,0.46167 1.40111,1.29623 0.49777,0.83457 0.49777,1.97099 v 1.74015 h -6.34191 v 0.92335 q 0,1.08315 0.64525,1.72239 0.64526,0.62148 1.71453,0.62148 0.92179,0 1.51173,-0.33738 0.60838,-0.35513 0.73744,-0.9411 h 1.65922 q -0.16593,1.22521 -1.2352,1.95323 -1.06928,0.71027 -2.67319,0.71027 z m -2.35978,-5.8952 h 4.71956 v -0.49719 q 0,-1.15418 -0.62681,-1.77567 -0.60838,-0.63923 -1.73297,-0.63923 -1.12458,0 -1.7514,0.63923 -0.60838,0.62149 -0.60838,1.77567 z"
       id="text3"
       style="font-size:23.5979px;font-family:'JetBrainsMono Nerd Font';-inkscape-font-specification:'JetBrainsMono Nerd Font';stroke:#000000;stroke-width:0.264584"
       aria-label="Continue" />
  </g>
</svg>
