<?xml version="1.0" encoding="UTF-8" standalone="no"?>
<!-- Created with Inkscape (http://www.inkscape.org/) -->

<svg
   width="128"
   height="128"
   viewBox="0 0 128 128"
   version="1.1"
   id="svg1"
   inkscape:version="1.4 (e7c3feb100, 2024-10-09)"
   sodipodi:docname="directory_new.svg"
   xmlns:inkscape="http://www.inkscape.org/namespaces/inkscape"
   xmlns:sodipodi="http://sodipodi.sourceforge.net/DTD/sodipodi-0.dtd"
   xmlns="http://www.w3.org/2000/svg"
   xmlns:svg="http://www.w3.org/2000/svg">
  <sodipodi:namedview
     id="namedview1"
     pagecolor="#ffffff"
     bordercolor="#000000"
     borderopacity="0.25"
     inkscape:showpageshadow="2"
     inkscape:pageopacity="0.0"
     inkscape:pagecheckerboard="0"
     inkscape:deskcolor="#d1d1d1"
     inkscape:document-units="px"
     inkscape:zoom="3.4424787"
     inkscape:cx="43.137522"
     inkscape:cy="55.773766"
     inkscape:window-width="1463"
     inkscape:window-height="886"
     inkscape:window-x="0"
     inkscape:window-y="0"
     inkscape:window-maximized="1"
     inkscape:current-layer="layer1" />
  <defs
     id="defs1" />
  <g
     inkscape:label="Layer 1"
     inkscape:groupmode="layer"
     id="layer1"
     transform="translate(-3e-6,-12.000004)">
    <path
       id="rect12"
       style="fill:#4682b4;fill-opacity:1;stroke:#000000;stroke-width:4;stroke-dasharray:none;stroke-opacity:1"
       d="m 11.659578,31.134004 c -1.060852,0 -2.0700403,0.212716 -2.9870351,0.600885 -0.4584973,0.194086 -0.8941655,0.435151 -1.3015292,0.71105 -0.4073637,0.275895 -0.7858644,0.588828 -1.1319815,0.936378 -0.346117,0.347554 -0.657756,0.727627 -0.9325131,1.136675 -0.2747576,0.409057 -0.5148273,0.84653 -0.7081118,1.306928 -0.3865692,0.920797 -0.5984043,1.934172 -0.5984043,2.999422 v 5.127559 69.222049 c 0,4.26099 3.41617,7.69133 7.659575,7.69133 H 116.34042 c 4.24341,0 7.65958,-3.43034 7.65958,-7.69133 V 64.463136 62.134705 59.335577 c 0,-4.261001 -3.41617,-7.691337 -7.65958,-7.691337 H 98.468089 71.659579 c -4.243404,0 -7.659575,-3.430338 -7.659575,-7.691339 v -3.264815 -1.862744 c 0,-4.261002 -3.416171,-7.691338 -7.659575,-7.691338 H 25.123674 Z" />
    <path
       id="rect1-2"
       style="fill:#24db1f;fill-opacity:1;stroke:#000000;stroke-width:3;stroke-dasharray:none;stroke-opacity:1"
       d="m 118.94105,40.220529 c 0,-2.242901 -2.16679,-4.048557 -4.85829,-4.04857 l -17.813667,9e-6 1e-5,-17.813688 c -1e-5,-2.69148 -1.80567,-4.858274 -4.04857,-4.858276 -2.24291,5e-6 -4.04857,2.166791 -4.04857,4.858279 v 17.813681 l -17.81368,2e-6 c -2.69149,-10e-7 -4.85828,1.805658 -4.85828,4.048563 0,2.242904 2.1668,4.048564 4.85828,4.048564 l 17.81368,2e-6 -1e-5,17.813672 c 2e-5,2.691502 1.80567,4.858288 4.04858,4.858286 2.24289,-1e-5 4.04856,-2.166794 4.04856,-4.858274 V 44.269093 l 17.813687,-10e-7 c 2.69147,3e-6 4.85826,-1.80567 4.85827,-4.048563 z" />
  </g>
</svg>
