<?xml version="1.0" encoding="UTF-8" standalone="no"?>
<!-- Created with Inkscape (http://www.inkscape.org/) -->

<svg
   width="82.054398"
   height="105.82747"
   viewBox="0 0 82.054398 105.82747"
   version="1.1"
   id="svg1"
   inkscape:version="1.4 (e7c3feb100, 2024-10-09)"
   sodipodi:docname="file.svg"
   xmlns:inkscape="http://www.inkscape.org/namespaces/inkscape"
   xmlns:sodipodi="http://sodipodi.sourceforge.net/DTD/sodipodi-0.dtd"
   xmlns="http://www.w3.org/2000/svg"
   xmlns:svg="http://www.w3.org/2000/svg">
  <sodipodi:namedview
     id="namedview1"
     pagecolor="#ffffff"
     bordercolor="#000000"
     borderopacity="0.25"
     inkscape:showpageshadow="2"
     inkscape:pageopacity="0.0"
     inkscape:pagecheckerboard="0"
     inkscape:deskcolor="#d1d1d1"
     inkscape:document-units="px"
     inkscape:zoom="4.0359529"
     inkscape:cx="31.591053"
     inkscape:cy="52.032322"
     inkscape:window-width="1463"
     inkscape:window-height="886"
     inkscape:window-x="0"
     inkscape:window-y="0"
     inkscape:window-maximized="1"
     inkscape:current-layer="layer1" />
  <defs
     id="defs1" />
  <g
     inkscape:label="Layer 1"
     inkscape:groupmode="layer"
     id="layer1"
     transform="translate(-21.1082,-2.9134903)">
    <rect
       style="fill:#b4b4b4;fill-opacity:1;stroke:#000000;stroke-width:4;stroke-linejoin:miter;stroke-dasharray:none"
       id="rect2"
       width="101.82747"
       height="78.054398"
       x="-106.74096"
       y="23.1082"
       rx="9"
       ry="9"
       transform="rotate(-90)" />
    <path
       id="path5-3-7"
       style="fill:#b4b4b4;fill-opacity:0;stroke:#4682b4;stroke-width:3"
       d="m 47.082512,82.416487 a 6.2371558,6.0005634 0 0 1 -3.118578,5.196644 6.2371558,6.0005634 0 0 1 -6.237156,0 6.2371558,6.0005634 0 0 1 -3.118578,-5.196644 m 24.948623,-6.77e-4 a 6.2371558,6.0005634 0 0 0 -3.118578,-5.19664 6.2371558,6.0005634 0 0 0 -6.237155,0 6.2371558,6.0005634 0 0 0 -3.118578,5.19664 m 24.948623,6.77e-4 a 6.2371558,6.0005634 0 0 1 -3.118578,5.196644 6.2371558,6.0005634 0 0 1 -6.237156,0 6.2371558,6.0005634 0 0 1 -3.118578,-5.196644 m 24.948624,-6.77e-4 a 6.2371558,6.0005634 0 0 0 -3.118578,-5.19664 6.2371558,6.0005634 0 0 0 -6.237156,0 6.2371558,6.0005634 0 0 0 -3.118578,5.19664" />
    <path
       id="path5-3"
       style="fill:#b4b4b4;fill-opacity:0;stroke:#4682b4;stroke-width:3"
       d="m 47.082512,62.416487 a 6.2371558,6.0005634 0 0 1 -3.118578,5.196641 6.2371558,6.0005634 0 0 1 -6.237156,-10e-7 6.2371558,6.0005634 0 0 1 -3.118578,-5.19664 m 24.948623,-6.77e-4 a 6.2371558,6.0005634 0 0 0 -3.118578,-5.19664 6.2371558,6.0005634 0 0 0 -6.237155,0 6.2371558,6.0005634 0 0 0 -3.118578,5.19664 m 24.948623,6.77e-4 a 6.2371558,6.0005634 0 0 1 -3.118578,5.196641 6.2371558,6.0005634 0 0 1 -6.237156,-10e-7 6.2371558,6.0005634 0 0 1 -3.118578,-5.19664 m 24.948624,-6.77e-4 a 6.2371558,6.0005634 0 0 0 -3.118578,-5.19664 6.2371558,6.0005634 0 0 0 -6.237156,0 6.2371558,6.0005634 0 0 0 -3.118578,5.19664" />
    <path
       id="path5-2"
       style="fill:#b4b4b4;fill-opacity:0;stroke:#4682b4;stroke-width:3"
       d="m 47.08245,42.416486 a 6.2371249,6.0005634 0 0 1 -3.118562,5.196641 6.2371249,6.0005634 0 0 1 -6.237125,-10e-7 6.2371249,6.0005634 0 0 1 -3.118563,-5.19664 m 24.9485,-6.77e-4 a 6.2371249,6.0005634 0 0 0 -3.118563,-5.19664 6.2371249,6.0005634 0 0 0 -6.237124,0 6.2371249,6.0005634 0 0 0 -3.118563,5.19664 m 24.9485,6.77e-4 a 6.2371249,6.0005634 0 0 1 -3.118563,5.196641 6.2371249,6.0005634 0 0 1 -6.237125,-10e-7 6.2371249,6.0005634 0 0 1 -3.118562,-5.19664 m 24.9485,-6.77e-4 a 6.2371249,6.0005634 0 0 0 -3.118563,-5.19664 6.2371249,6.0005634 0 0 0 -6.237125,0 6.2371249,6.0005634 0 0 0 -3.118562,5.19664" />
    <path
       id="path5"
       style="fill:#b4b4b4;fill-opacity:0;stroke:#4682b4;stroke-width:3"
       d="m 47.082512,22.416487 a 6.2371558,6.0005634 0 0 1 -3.118578,5.196641 6.2371558,6.0005634 0 0 1 -6.237156,-1e-6 6.2371558,6.0005634 0 0 1 -3.118578,-5.19664 m 24.948623,-6.77e-4 a 6.2371558,6.0005634 0 0 0 -3.118578,-5.19664 6.2371558,6.0005634 0 0 0 -6.237155,0 6.2371558,6.0005634 0 0 0 -3.118578,5.19664 m 24.948623,6.77e-4 a 6.2371558,6.0005634 0 0 1 -3.118578,5.196641 6.2371558,6.0005634 0 0 1 -6.237156,-1e-6 6.2371558,6.0005634 0 0 1 -3.118578,-5.19664 m 24.948624,-6.77e-4 a 6.2371558,6.0005634 0 0 0 -3.118578,-5.19664 6.2371558,6.0005634 0 0 0 -6.237156,0 6.2371558,6.0005634 0 0 0 -3.118578,5.19664" />
  </g>
</svg>
