<?xml version="1.0" encoding="UTF-8" standalone="no"?>
<!-- Created with Inkscape (http://www.inkscape.org/) -->

<svg
   width="128"
   height="128"
   viewBox="0 0 128 128"
   version="1.1"
   id="svg1"
   inkscape:version="1.4 (e7c3feb100, 2024-10-09)"
   sodipodi:docname="file_new.svg"
   xmlns:inkscape="http://www.inkscape.org/namespaces/inkscape"
   xmlns:sodipodi="http://sodipodi.sourceforge.net/DTD/sodipodi-0.dtd"
   xmlns="http://www.w3.org/2000/svg"
   xmlns:svg="http://www.w3.org/2000/svg">
  <sodipodi:namedview
     id="namedview1"
     pagecolor="#ffffff"
     bordercolor="#000000"
     borderopacity="0.25"
     inkscape:showpageshadow="2"
     inkscape:pageopacity="0.0"
     inkscape:pagecheckerboard="0"
     inkscape:deskcolor="#d1d1d1"
     inkscape:document-units="px"
     inkscape:zoom="4"
     inkscape:cx="66.5"
     inkscape:cy="50.25"
     inkscape:window-width="1463"
     inkscape:window-height="886"
     inkscape:window-x="0"
     inkscape:window-y="0"
     inkscape:window-maximized="1"
     inkscape:current-layer="layer2" />
  <defs
     id="defs1" />
  <g
     inkscape:label="File"
     inkscape:groupmode="layer"
     id="layer1"
     transform="translate(-39.407188,-19.09116)">
    <rect
       style="fill:#b4b4b4;fill-opacity:1;stroke:#000000;stroke-width:4;stroke-linejoin:miter;stroke-dasharray:none"
       id="rect2"
       width="101.82747"
       height="78.054398"
       x="-134.00513"
       y="64.380188"
       rx="9"
       ry="9"
       transform="rotate(-90)" />
    <path
       id="path5-3-7"
       style="fill:#b4b4b4;fill-opacity:0;stroke:#4682b4;stroke-width:3"
       d="m 88.354498,109.68069 a 6.2371558,6.0005634 0 0 1 -3.118578,5.19664 6.2371558,6.0005634 0 0 1 -6.237156,0 6.2371558,6.0005634 0 0 1 -3.118578,-5.19664 m 24.948624,-6.8e-4 a 6.2371558,6.0005634 0 0 0 -3.118578,-5.19664 6.2371558,6.0005634 0 0 0 -6.237156,0 6.2371558,6.0005634 0 0 0 -3.118578,5.19664 m 24.948622,6.8e-4 a 6.2371558,6.0005634 0 0 1 -3.11858,5.19664 6.2371558,6.0005634 0 0 1 -6.23716,0 6.2371558,6.0005634 0 0 1 -3.11857,-5.19664 m 24.94862,-6.8e-4 a 6.2371558,6.0005634 0 0 0 -3.11858,-5.19664 6.2371558,6.0005634 0 0 0 -6.23715,0 6.2371558,6.0005634 0 0 0 -3.11858,5.19664" />
    <path
       id="path5-3"
       style="fill:#b4b4b4;fill-opacity:0;stroke:#4682b4;stroke-width:3"
       d="m 88.354498,89.680683 a 6.2371558,6.0005634 0 0 1 -3.118578,5.196641 6.2371558,6.0005634 0 0 1 -6.237156,-10e-7 6.2371558,6.0005634 0 0 1 -3.118578,-5.19664 m 24.948624,-6.77e-4 a 6.2371558,6.0005634 0 0 0 -3.118578,-5.19664 6.2371558,6.0005634 0 0 0 -6.237156,0 6.2371558,6.0005634 0 0 0 -3.118578,5.19664 m 24.948622,6.77e-4 a 6.2371558,6.0005634 0 0 1 -3.11858,5.196641 6.2371558,6.0005634 0 0 1 -6.23716,-10e-7 6.2371558,6.0005634 0 0 1 -3.11857,-5.19664 m 24.94862,-6.77e-4 a 6.2371558,6.0005634 0 0 0 -3.11858,-5.19664 6.2371558,6.0005634 0 0 0 -6.23715,0 6.2371558,6.0005634 0 0 0 -3.11858,5.19664" />
    <path
       id="path5-2"
       style="fill:#b4b4b4;fill-opacity:0;stroke:#4682b4;stroke-width:3"
       d="m 88.354436,69.680682 a 6.2371249,6.0005634 0 0 1 -3.118562,5.196641 6.2371249,6.0005634 0 0 1 -6.237125,-10e-7 6.2371249,6.0005634 0 0 1 -3.118563,-5.19664 m 24.948494,-6.77e-4 a 6.2371249,6.0005634 0 0 0 -3.118558,-5.19664 6.2371249,6.0005634 0 0 0 -6.237123,0 6.2371249,6.0005634 0 0 0 -3.118563,5.19664 m 24.948494,6.77e-4 a 6.2371249,6.0005634 0 0 1 -3.11856,5.196641 6.2371249,6.0005634 0 0 1 -6.23712,-10e-7 6.2371249,6.0005634 0 0 1 -3.11857,-5.19664 m 24.9485,-6.77e-4 a 6.2371249,6.0005634 0 0 0 -3.11856,-5.19664 6.2371249,6.0005634 0 0 0 -6.23712,0 6.2371249,6.0005634 0 0 0 -3.11857,5.19664" />
    <path
       id="path5"
       style="fill:#b4b4b4;fill-opacity:0;stroke:#4682b4;stroke-width:3"
       d="m 88.354498,49.680683 a 6.2371558,6.0005634 0 0 1 -3.118578,5.196641 6.2371558,6.0005634 0 0 1 -6.237156,-1e-6 6.2371558,6.0005634 0 0 1 -3.118578,-5.19664 m 24.948624,-6.77e-4 a 6.2371558,6.0005634 0 0 0 -3.118578,-5.19664 6.2371558,6.0005634 0 0 0 -6.237156,0 6.2371558,6.0005634 0 0 0 -3.118578,5.19664 m 24.948622,6.77e-4 a 6.2371558,6.0005634 0 0 1 -3.11858,5.196641 6.2371558,6.0005634 0 0 1 -6.23716,-1e-6 6.2371558,6.0005634 0 0 1 -3.11857,-5.19664 m 24.94862,-6.77e-4 a 6.2371558,6.0005634 0 0 0 -3.11858,-5.19664 6.2371558,6.0005634 0 0 0 -6.23715,0 6.2371558,6.0005634 0 0 0 -3.11858,5.19664" />
  </g>
  <g
     inkscape:groupmode="layer"
     id="layer2"
     inkscape:label="Sign">
    <path
       id="rect1"
       style="fill:#24db1f;fill-opacity:1;stroke:#000000;stroke-width:3;stroke-dasharray:none;stroke-opacity:1"
       d="m 118.94105,28.220522 c 0,-2.242901 -2.16679,-4.048557 -4.85829,-4.04857 l -17.813669,9e-6 3e-6,-17.8136881 c -5e-6,-2.6914796 -1.805665,-4.858274 -4.048568,-4.8582762 -2.242909,5.2e-6 -4.048564,2.1667917 -4.048565,4.8582789 l -2e-6,17.8136814 -17.813681,2e-6 c -2.691486,-1e-6 -4.858277,1.805658 -4.858277,4.048563 0,2.242904 2.166792,4.048564 4.858278,4.048564 l 17.813683,2e-6 -10e-6,17.813672 c 1.7e-5,2.691502 1.80567,4.858288 4.048573,4.858286 2.242895,-1e-5 4.048566,-2.166794 4.048566,-4.858274 V 32.269086 l 17.813689,-1e-6 c 2.69147,3e-6 4.85826,-1.80567 4.85827,-4.048563 z" />
  </g>
</svg>
