<?xml version="1.0" encoding="UTF-8" standalone="no"?>
<!-- Created with Inkscape (http://www.inkscape.org/) -->

<svg
   width="128"
   height="128"
   viewBox="0 0 128 128"
   version="1.1"
   id="svg1"
   inkscape:version="1.4 (e7c3feb100, 2024-10-09)"
   sodipodi:docname="file_delete.svg"
   xmlns:inkscape="http://www.inkscape.org/namespaces/inkscape"
   xmlns:sodipodi="http://sodipodi.sourceforge.net/DTD/sodipodi-0.dtd"
   xmlns="http://www.w3.org/2000/svg"
   xmlns:svg="http://www.w3.org/2000/svg">
  <sodipodi:namedview
     id="namedview1"
     pagecolor="#ffffff"
     bordercolor="#000000"
     borderopacity="0.25"
     inkscape:showpageshadow="2"
     inkscape:pageopacity="0.0"
     inkscape:pagecheckerboard="0"
     inkscape:deskcolor="#d1d1d1"
     inkscape:document-units="px"
     inkscape:zoom="4"
     inkscape:cx="66.5"
     inkscape:cy="50.25"
     inkscape:window-width="1463"
     inkscape:window-height="886"
     inkscape:window-x="0"
     inkscape:window-y="0"
     inkscape:window-maximized="1"
     inkscape:current-layer="layer2" />
  <defs
     id="defs1" />
  <g
     inkscape:label="File"
     inkscape:groupmode="layer"
     id="layer1"
     transform="translate(-39.407188,-19.09116)">
    <rect
       style="fill:#b4b4b4;fill-opacity:1;stroke:#000000;stroke-width:4;stroke-linejoin:miter;stroke-dasharray:none"
       id="rect2"
       width="101.82747"
       height="78.054398"
       x="-134.00513"
       y="64.380188"
       rx="9"
       ry="9"
       transform="rotate(-90)" />
    <path
       id="path5-3-7"
       style="fill:#b4b4b4;fill-opacity:0;stroke:#4682b4;stroke-width:3"
       d="m 88.354498,109.68069 a 6.2371558,6.0005634 0 0 1 -3.118578,5.19664 6.2371558,6.0005634 0 0 1 -6.237156,0 6.2371558,6.0005634 0 0 1 -3.118578,-5.19664 m 24.948624,-6.8e-4 a 6.2371558,6.0005634 0 0 0 -3.118578,-5.19664 6.2371558,6.0005634 0 0 0 -6.237156,0 6.2371558,6.0005634 0 0 0 -3.118578,5.19664 m 24.948622,6.8e-4 a 6.2371558,6.0005634 0 0 1 -3.11858,5.19664 6.2371558,6.0005634 0 0 1 -6.23716,0 6.2371558,6.0005634 0 0 1 -3.11857,-5.19664 m 24.94862,-6.8e-4 a 6.2371558,6.0005634 0 0 0 -3.11858,-5.19664 6.2371558,6.0005634 0 0 0 -6.23715,0 6.2371558,6.0005634 0 0 0 -3.11858,5.19664" />
    <path
       id="path5-3"
       style="fill:#b4b4b4;fill-opacity:0;stroke:#4682b4;stroke-width:3"
       d="m 88.354498,89.680683 a 6.2371558,6.0005634 0 0 1 -3.118578,5.196641 6.2371558,6.0005634 0 0 1 -6.237156,-10e-7 6.2371558,6.0005634 0 0 1 -3.118578,-5.19664 m 24.948624,-6.77e-4 a 6.2371558,6.0005634 0 0 0 -3.118578,-5.19664 6.2371558,6.0005634 0 0 0 -6.237156,0 6.2371558,6.0005634 0 0 0 -3.118578,5.19664 m 24.948622,6.77e-4 a 6.2371558,6.0005634 0 0 1 -3.11858,5.196641 6.2371558,6.0005634 0 0 1 -6.23716,-10e-7 6.2371558,6.0005634 0 0 1 -3.11857,-5.19664 m 24.94862,-6.77e-4 a 6.2371558,6.0005634 0 0 0 -3.11858,-5.19664 6.2371558,6.0005634 0 0 0 -6.23715,0 6.2371558,6.0005634 0 0 0 -3.11858,5.19664" />
    <path
       id="path5-2"
       style="fill:#b4b4b4;fill-opacity:0;stroke:#4682b4;stroke-width:3"
       d="m 88.354436,69.680682 a 6.2371249,6.0005634 0 0 1 -3.118562,5.196641 6.2371249,6.0005634 0 0 1 -6.237125,-10e-7 6.2371249,6.0005634 0 0 1 -3.118563,-5.19664 m 24.948494,-6.77e-4 a 6.2371249,6.0005634 0 0 0 -3.118558,-5.19664 6.2371249,6.0005634 0 0 0 -6.237123,0 6.2371249,6.0005634 0 0 0 -3.118563,5.19664 m 24.948494,6.77e-4 a 6.2371249,6.0005634 0 0 1 -3.11856,5.196641 6.2371249,6.0005634 0 0 1 -6.23712,-10e-7 6.2371249,6.0005634 0 0 1 -3.11857,-5.19664 m 24.9485,-6.77e-4 a 6.2371249,6.0005634 0 0 0 -3.11856,-5.19664 6.2371249,6.0005634 0 0 0 -6.23712,0 6.2371249,6.0005634 0 0 0 -3.11857,5.19664" />
    <path
       id="path5"
       style="fill:#b4b4b4;fill-opacity:0;stroke:#4682b4;stroke-width:3"
       d="m 88.354498,49.680683 a 6.2371558,6.0005634 0 0 1 -3.118578,5.196641 6.2371558,6.0005634 0 0 1 -6.237156,-1e-6 6.2371558,6.0005634 0 0 1 -3.118578,-5.19664 m 24.948624,-6.77e-4 a 6.2371558,6.0005634 0 0 0 -3.118578,-5.19664 6.2371558,6.0005634 0 0 0 -6.237156,0 6.2371558,6.0005634 0 0 0 -3.118578,5.19664 m 24.948622,6.77e-4 a 6.2371558,6.0005634 0 0 1 -3.11858,5.196641 6.2371558,6.0005634 0 0 1 -6.23716,-1e-6 6.2371558,6.0005634 0 0 1 -3.11857,-5.19664 m 24.94862,-6.77e-4 a 6.2371558,6.0005634 0 0 0 -3.11858,-5.19664 6.2371558,6.0005634 0 0 0 -6.23715,0 6.2371558,6.0005634 0 0 0 -3.11858,5.19664" />
  </g>
  <g
     inkscape:groupmode="layer"
     id="layer2"
     inkscape:label="Sign">
    <path
       id="rect1"
       style="fill:#cd2d2d;fill-opacity:1;stroke:#000000;stroke-width:3;stroke-dasharray:none;stroke-opacity:1"
       d="m 111.11479,47.114787 c 1.58597,-1.585971 1.33061,-4.394914 -0.57256,-6.298102 L 97.946058,28.220525 110.54224,15.624348 c 1.90316,-1.903167 2.15852,-4.712117 0.57255,-6.2980901 -1.58598,-1.5859726 -4.39492,-1.3306138 -6.29809,0.5725539 L 92.220524,22.494986 79.624348,9.8988121 C 77.721181,7.9956434 74.912234,7.7402852 73.326261,9.3262579 71.740288,10.912231 71.995647,13.721178 73.898815,15.624346 L 86.49499,28.220524 73.898815,40.816685 c -1.903168,1.903191 -2.158527,4.71213 -0.572554,6.2981 1.585973,1.58596 4.394923,1.330614 6.298087,-0.57255 L 92.220526,33.946057 104.81671,46.54224 c 1.90315,1.903154 4.71211,2.158507 6.29808,0.572547 z" />
  </g>
</svg>
