<?xml version="1.0" encoding="UTF-8" standalone="no"?>
<!-- Created with Inkscape (http://www.inkscape.org/) -->

<svg
   width="124"
   height="93.732277"
   viewBox="0 0 124 93.732277"
   version="1.1"
   id="svg1"
   inkscape:version="1.4 (e7c3feb100, 2024-10-09)"
   sodipodi:docname="directory.svg"
   xmlns:inkscape="http://www.inkscape.org/namespaces/inkscape"
   xmlns:sodipodi="http://sodipodi.sourceforge.net/DTD/sodipodi-0.dtd"
   xmlns="http://www.w3.org/2000/svg"
   xmlns:svg="http://www.w3.org/2000/svg">
  <sodipodi:namedview
     id="namedview1"
     pagecolor="#ffffff"
     bordercolor="#000000"
     borderopacity="0.25"
     inkscape:showpageshadow="2"
     inkscape:pageopacity="0.0"
     inkscape:pagecheckerboard="0"
     inkscape:deskcolor="#d1d1d1"
     inkscape:document-units="px"
     inkscape:zoom="4.8684"
     inkscape:cx="59.465122"
     inkscape:cy="36.254211"
     inkscape:window-width="1463"
     inkscape:window-height="886"
     inkscape:window-x="0"
     inkscape:window-y="0"
     inkscape:window-maximized="1"
     inkscape:current-layer="layer1" />
  <defs
     id="defs1" />
  <g
     inkscape:label="Layer 1"
     inkscape:groupmode="layer"
     id="layer1"
     transform="translate(-3e-6,-12.000004)">
    <path
       id="rect12"
       style="fill:#4682b4;fill-opacity:1;stroke:#000000;stroke-width:4;stroke-dasharray:none;stroke-opacity:1"
       d="m 9.6595774,14.000004 c -1.0608511,0 -2.0700398,0.212716 -2.9870346,0.600885 -0.4584973,0.194086 -0.8941655,0.435151 -1.3015292,0.71105 -0.4073637,0.275895 -0.7858644,0.588828 -1.1319815,0.936378 -0.3461169,0.347554 -0.6577559,0.727627 -0.932513,1.136675 -0.2747576,0.409057 -0.5148273,0.84653 -0.7081118,1.306928 -0.3865692,0.920797 -0.5984043,1.934172 -0.5984043,2.999422 v 5.127559 69.222045 c 0,4.260994 3.4161699,7.691334 7.6595744,7.691334 H 114.34042 c 4.24341,0 7.65958,-3.43034 7.65958,-7.691334 v -48.71181 -2.328431 -2.799128 c 0,-4.261001 -3.41617,-7.691337 -7.65958,-7.691337 H 96.468087 69.659577 c -4.243404,0 -7.659575,-3.430338 -7.659575,-7.691339 v -3.264815 -1.862744 c 0,-4.261002 -3.41617,-7.691338 -7.659574,-7.691338 H 23.123673 Z" />
  </g>
</svg>
